# File created by Blade
# Date/Time:  Tue Apr 07 20:53:18 2015
#---------------------------------------------------------
:version 1.10
:name HOM
:units
  mass 1.0
  length 1.000000
  angle deg
:documentation
     Acclaim Skeleton File
:root
   axis xyz
   order TX TY TZ RX RY RZ
   position 0.000000 0.000000 0.000000
   orientation 0 0 0
:bonedata
   begin
      id 1
      name Spine_dum
      direction 0.000000 1.000000 0.000000
      length 4.885285
      axis 0.0 0.0 0.0 xyz
   end
   begin
      id 2
      name LeftUpLeg_dum
      direction 1.000000 0.000000 0.000000
      length 2.672193
      axis 0.0 0.0 0.0 xyz
   end
   begin
      id 3
      name RightUpLeg_dum
      direction -1.000000 0.000000 0.000000
      length 2.672193
      axis 0.0 0.0 0.0 xyz
   end
   begin
      id 4
      name Spine
      direction 0.000000 1.000000 0.000000
      length 0.000000
      axis 0.0 0.0 0.0 xyz
      dof rx ry rz
   end
   begin
      id 5
      name Spine_dum1
      direction 0.000000 1.000000 0.000000
      length 16.494159
      axis 0.0 0.0 0.0 xyz
   end
   begin
      id 6
      name Spine_dum2
      direction 0.000000 1.000000 0.000000
      length 10.663448
      axis 0.0 0.0 0.0 xyz
   end
   begin
      id 7
      name Spine_dum3
      direction 0.000000 1.000000 0.000000
      length 10.663448
      axis 0.0 0.0 0.0 xyz
   end
   begin
      id 8
      name Head
      direction 0.000000 1.000000 0.000000
      length 4.527550
      axis 0.0 0.0 0.0 xyz
      dof rx ry rz
   end
   begin
      id 9
      name LeftShoulder
      direction 1.000000 0.000000 0.000000
      length 7.531907
      axis 0.0 0.0 -90.0 xyz
      dof rx ry rz
   end
   begin
      id 10
      name LeftArm
      direction 1.000000 0.000000 0.000000
      length 10.229199
      axis 0.0 0.0 -90.0 xyz
      dof rx ry rz
   end
   begin
      id 11
      name LeftForeArm
      direction 1.000000 0.000000 0.000000
      length 8.673495
      axis 0.0 0.0 -90.0 xyz
      dof ry rz rx
   end
   begin
      id 12
      name LeftHand
      direction 0.000000 0.000000 0.000000
      length 0.000000
      axis 0.0 0.0 -90.0 xyz
      dof rx ry rz
   end
   begin
      id 13
      name LeftHand_dum1
      direction 0.000000 0.000000 0.000000
      length 0.000000
      axis 0.0 0.0 -90.0 xyz
   end
   begin
      id 14
      name LeftHand_dum2
      direction 1.000000 0.000000 0.000000
      length 3.937000
      axis 0.0 0.0 -90.0 xyz
   end
   begin
      id 15
      name LeftHandThumb1
      direction 0.000000 0.000000 1.000000
      length 3.937000
      axis 0.0 0.0 -90.0 xyz
      dof rx rz ry
   end
   begin
      id 16
      name RightShoulder
      direction -1.000000 0.000000 0.000000
      length 7.531907
      axis 0.0 0.0 90.0 xyz
      dof rx ry rz
   end
   begin
      id 17
      name RightArm
      direction -1.000000 0.000000 0.000000
      length 10.229199
      axis 0.0 0.0 90.0 xyz
      dof rx ry rz
   end
   begin
      id 18
      name RightForeArm
      direction -1.000000 0.000000 0.000000
      length 8.673495
      axis 0.0 0.0 90.0 xyz
      dof ry rz rx
   end
   begin
      id 19
      name RightHand
      direction 0.000000 0.000000 0.000000
      length 0.000000
      axis 0.0 0.0 90.0 xyz
      dof rx ry rz
   end
   begin
      id 20
      name RightHand_dum1
      direction 0.000000 0.000000 0.000000
      length 0.000000
      axis 0.0 0.0 90.0 xyz
   end
   begin
      id 21
      name RightHand_dum2
      direction -1.000000 0.000000 0.000000
      length 3.937000
      axis 0.0 0.0 90.0 xyz
   end
   begin
      id 22
      name RightHandThumb1
      direction 0.000000 0.000000 1.000000
      length 3.937000
      axis 0.0 0.0 90.0 xyz
      dof rx rz ry
   end
   begin
      id 23
      name LeftUpLeg
      direction 0.000000 -1.000000 0.000000
      length 16.263388
      axis 0.0 0.0 0.0 xyz
      dof rx ry rz
   end
   begin
      id 24
      name LeftLeg
      direction 0.000000 -1.000000 0.000000
      length 14.328163
      axis 0.0 0.0 0.0 xyz
      dof rx ry rz
   end
   begin
      id 25
      name LeftFoot
      direction 0.000000 -0.258819 0.965926
      length 5.031290
      axis 15.0 0.0 0.0 xyz
      dof rx ry rz
   end
   begin
      id 26
      name LeftToeBase
      direction 0.000000 0.000000 1.000000
      length 2.952750
      axis 0.0 0.0 0.0 xyz
      dof rx ry rz
   end
   begin
      id 27
      name RightUpLeg
      direction 0.000000 -1.000000 0.000000
      length 16.263388
      axis 0.0 0.0 0.0 xyz
      dof rx ry rz
   end
   begin
      id 28
      name RightLeg
      direction 0.000000 -1.000000 0.000000
      length 14.328163
      axis 0.0 0.0 0.0 xyz
      dof rx ry rz
   end
   begin
      id 29
      name RightFoot
      direction 0.000000 -0.258819 0.965926
      length 5.031290
      axis 15.0 0.0 0.0 xyz
      dof rx ry rz
   end
   begin
      id 30
      name RightToeBase
      direction 0.000000 0.000000 1.000000
      length 2.952750
      axis 0.0 0.0 0.0 xyz
      dof rx ry rz
   end
:hierarchy
   begin
      root Spine_dum LeftUpLeg_dum RightUpLeg_dum
      Spine_dum Spine
      LeftUpLeg_dum LeftUpLeg
      RightUpLeg_dum RightUpLeg
      Spine Spine_dum1 Spine_dum2 Spine_dum3
      Spine_dum1 Head
      Spine_dum2 LeftShoulder
      Spine_dum3 RightShoulder
      LeftShoulder LeftArm
      LeftArm LeftForeArm
      LeftForeArm LeftHand
      LeftHand LeftHand_dum1 LeftHand_dum2
      LeftHand_dum1 LeftHandThumb1
      RightShoulder RightArm
      RightArm RightForeArm
      RightForeArm RightHand
      RightHand RightHand_dum1 RightHand_dum2
      RightHand_dum1 RightHandThumb1
      LeftUpLeg LeftLeg
      LeftLeg LeftFoot
      LeftFoot LeftToeBase
      RightUpLeg RightLeg
      RightLeg RightFoot
      RightFoot RightToeBase
   end

# File created by Blade
# Date/Time:  Tue Apr 07 20:53:11 2015
# Frame Rate: 120.000 fps
#------------------------------------------------------
:FULLY-SPECIFIED
:DEGREES
194
root -18.899980 32.882442 4.345480 -49.961771 -86.011628 54.041578
Spine -4.308083 -2.381563 -3.188072
Head 33.851674 -2.775244 -1.105529
LeftShoulder -18.321367 42.117186 18.883094
LeftArm 68.988373 -47.458766 -70.731354
LeftForeArm -5.671789 -0.000000 3.238600
LeftHand 6.733267 -0.000000 -3.551492
LeftHandThumb1 -26.253704 0.000000 33.147579
RightShoulder -5.558818 0.472601 -24.102023
RightArm 21.231579 8.863438 61.297580
RightForeArm 6.492817 -0.000000 5.651458
RightHand 4.247233 -0.000000 14.384871
RightHandThumb1 -24.326973 -0.000000 -32.862282
LeftUpLeg -13.726619 -1.229183 -5.900555
LeftLeg 6.370754 -0.000000 -0.000000
LeftFoot -0.384403 12.995265 -13.800802
LeftToeBase -6.886231 -0.000000 0.000000
RightUpLeg 3.369035 5.274676 -2.498372
RightLeg 37.433309 -0.000000 -0.000000
RightFoot 7.988090 4.710384 6.923938
RightToeBase -38.678858 -0.000000 0.000000
195
root -19.039650 32.882000 4.399785 -51.122018 -85.853331 55.028375
Spine -4.174534 -2.376450 -3.492890
Head 33.681722 -2.865939 -0.949817
LeftShoulder -18.123875 41.852597 19.322875
LeftArm 69.049219 -47.931738 -70.481397
LeftForeArm -5.890173 -0.000000 3.489560
LeftHand 6.913415 0.000000 -3.058477
LeftHandThumb1 -26.253704 0.000000 33.147579
RightShoulder -5.575934 0.727907 -24.326395
RightArm 21.411689 9.171970 60.870322
RightForeArm 6.434950 -0.000000 6.024591
RightHand 4.097562 -0.000000 15.228820
RightHandThumb1 -24.326973 -0.000000 -32.862282
LeftUpLeg -13.315993 -1.219087 -6.172046
LeftLeg 6.453852 -0.000000 -0.000000
LeftFoot -0.794325 12.854408 -13.700881
LeftToeBase -6.563664 -0.000000 0.000000
RightUpLeg 2.289598 4.489696 -2.831586
RightLeg 39.992786 -0.000000 -0.000000
RightFoot 8.643987 4.585605 7.367559
RightToeBase -36.626035 -0.000000 0.000000
196
root -19.176024 32.881362 4.450070 -52.170703 -85.743831 55.896288
Spine -4.032900 -2.370537 -3.742458
Head 33.501877 -2.910911 -0.819373
LeftShoulder -17.943138 41.631910 19.703728
LeftArm 69.151707 -48.449972 -70.275616
LeftForeArm -5.964519 0.000000 3.756465
LeftHand 6.922006 -0.000000 -2.651376
LeftHandThumb1 -26.253704 0.000000 33.147579
RightShoulder -5.531033 0.966145 -24.557101
RightArm 21.562223 9.472349 60.366462
RightForeArm 6.445677 -0.000000 6.470937
RightHand 4.109708 -0.000000 14.180404
RightHandThumb1 -24.326973 -0.000000 -32.862282
LeftUpLeg -12.887520 -1.117565 -6.406078
LeftLeg 6.499744 -0.000000 -0.000000
LeftFoot -1.153644 12.684171 -13.644079
LeftToeBase -6.906479 -0.000000 0.000000
RightUpLeg 1.113612 3.833313 -3.100324
RightLeg 42.654772 -0.000000 -0.000000
RightFoot 9.392167 4.321890 7.911384
RightToeBase -34.165948 -0.000000 0.000000
197
root -19.309738 32.879549 4.501323 -53.568208 -85.632798 57.086787
Spine -3.865931 -2.366651 -4.007551
Head 33.341182 -2.966325 -0.693677
LeftShoulder -17.821270 41.433714 20.028057
LeftArm 69.295807 -48.932367 -70.004721
LeftForeArm -6.169705 -0.000000 3.896630
LeftHand 7.175945 0.000000 -2.226038
LeftHandThumb1 -26.253704 0.000000 33.147579
RightShoulder -5.478287 1.230271 -24.805852
RightArm 21.726680 9.699931 59.846794
RightForeArm 6.608383 0.000000 6.861508
RightHand 4.065894 -0.000000 13.991384
RightHandThumb1 -24.326973 -0.000000 -32.862282
LeftUpLeg -12.395237 -1.005847 -6.658833
LeftLeg 6.448489 -0.000000 -0.000000
LeftFoot -1.409081 12.556209 -13.568913
LeftToeBase -6.974640 -0.000000 0.000000
RightUpLeg -0.082701 3.159673 -3.374652
RightLeg 45.356491 -0.000000 -0.000000
RightFoot 9.976911 3.879766 7.981827
RightToeBase -31.169534 -0.000000 0.000000
198
root -19.438272 32.877321 4.549908 -54.967133 -85.526233 58.300776
Spine -3.719637 -2.423035 -4.268617
Head 33.188593 -2.938415 -0.569848
LeftShoulder -17.754802 41.250813 20.321777
LeftArm 69.472781 -49.400086 -69.803069
LeftForeArm -6.556234 0.000000 3.992098
LeftHand 7.360887 0.000000 -1.861453
LeftHandThumb1 -26.253704 0.000000 33.147579
RightShoulder -5.383543 1.542803 -25.053407
RightArm 21.903403 10.055892 59.383485
RightForeArm 6.538665 0.000000 7.245719
RightHand 4.106137 -0.000000 14.139154
RightHandThumb1 -24.326973 -0.000000 -32.862282
LeftUpLeg -11.914578 -0.826472 -6.911290
LeftLeg 6.334895 -0.000000 -0.000000
LeftFoot -1.570190 12.386293 -13.362866
LeftToeBase -6.998117 -0.000000 0.000000
RightUpLeg -1.355119 2.605368 -3.609724
RightLeg 48.019040 -0.000000 -0.000000
RightFoot 10.663536 3.314913 8.157146
RightToeBase -28.027302 -0.000000 0.000000
199
root -19.555695 32.875430 4.595813 -56.770390 -85.449789 59.952699
Spine -3.589501 -2.413571 -4.528825
Head 33.021586 -2.951526 -0.433978
LeftShoulder -17.612991 41.016971 20.663800
LeftArm 69.688998 -49.921420 -69.707271
LeftForeArm -6.721277 0.000000 4.081592
LeftHand 7.861738 -0.000000 -1.557037
LeftHandThumb1 -26.253704 0.000000 33.147579
RightShoulder -5.292190 1.854267 -25.296807
RightArm 22.049372 10.427403 58.889862
RightForeArm 6.419073 0.000000 7.711824
RightHand 3.914551 -0.000000 14.030062
RightHandThumb1 -24.326973 -0.000000 -32.862282
LeftUpLeg -11.490087 -0.643352 -7.148730
LeftLeg 6.216326 -0.000000 -0.000000
LeftFoot -1.675944 12.310288 -13.071917
LeftToeBase -7.238926 -0.000000 0.000000
RightUpLeg -2.720546 2.178912 -3.811211
RightLeg 50.675328 -0.000000 -0.000000
RightFoot 11.286054 2.721950 8.207859
RightToeBase -24.098925 -0.000000 0.000000
